<?xml version="1.0" encoding="UTF-8" standalone="no"?>
<svg
   xmlns:dc="http://purl.org/dc/elements/1.1/"
   xmlns:cc="http://creativecommons.org/ns#"
   xmlns:rdf="http://www.w3.org/1999/02/22-rdf-syntax-ns#"
   xmlns:svg="http://www.w3.org/2000/svg"
   xmlns="http://www.w3.org/2000/svg"
   xmlns:sodipodi="http://sodipodi.sourceforge.net/DTD/sodipodi-0.dtd"
   xmlns:inkscape="http://www.inkscape.org/namespaces/inkscape"
   viewBox="0 0 32 32"
   version="1.1"
   xml:space="preserve"
   style="clip-rule:evenodd;fill-rule:evenodd;stroke-linejoin:round;stroke-miterlimit:1.41420996"
   x="0px"
   y="0px"
   stroke-miterlimit="1.41421"
   id="svg16"
   sodipodi:docname="awards.svg"
   width="32"
   height="32"
   inkscape:export-filename="C:\Users\clt596\Documents\Personal Website\cbteeple.github.io\img\icons\awards.png"
   inkscape:export-xdpi="768"
   inkscape:export-ydpi="768"
   inkscape:version="0.92.3 (2405546, 2018-03-11)"><metadata
     id="metadata22"><rdf:RDF><cc:Work
         rdf:about=""><dc:format>image/svg+xml</dc:format><dc:type
           rdf:resource="http://purl.org/dc/dcmitype/StillImage" /><dc:title></dc:title></cc:Work></rdf:RDF></metadata><defs
     id="defs20" /><sodipodi:namedview
     pagecolor="#ffffff"
     bordercolor="#666666"
     borderopacity="1"
     objecttolerance="10"
     gridtolerance="10"
     guidetolerance="10"
     inkscape:pageopacity="0"
     inkscape:pageshadow="2"
     inkscape:window-width="2560"
     inkscape:window-height="1330"
     id="namedview18"
     showgrid="false"
     inkscape:zoom="5.9"
     inkscape:cx="16"
     inkscape:cy="20"
     inkscape:window-x="-12"
     inkscape:window-y="-12"
     inkscape:window-maximized="1"
     inkscape:current-layer="g8" /><g
     transform="translate(-256,-264)"
     id="g10"><g
       transform="translate(256,264)"
       id="g8"><rect
         x="0"
         y="0"
         width="32"
         height="32"
         style="fill:none"
         id="rect2" /><g
         transform="translate(-288,-298)"
         id="g6"
         style="fill:#bfe7ff;fill-opacity:0.94117647"><path
           d="m 312,328 h -16 c 0,0 0,-10e-4 0,-0.002 0,-1.06 0.421,-2.077 1.171,-2.827 0.75,-0.75 1.767,-1.171 2.827,-1.171 2.444,0 5.558,0 8.002,0 2.209,0 4,1.791 4,4 z m 0,-26 h 6 c 0,1.668 0,3.335 0,5.003 -0.005,0.791 -0.133,1.576 -0.396,2.323 -0.319,0.905 -0.826,1.741 -1.479,2.443 -0.749,0.804 -1.686,1.428 -2.718,1.806 -0.533,0.195 -1.086,0.321 -1.648,0.382 -0.626,2.488 -2.417,4.513 -4.759,5.461 V 322 h -6 v -2.582 c -2.342,-0.947 -4.133,-2.972 -4.759,-5.46 -0.647,-0.072 -1.282,-0.229 -1.887,-0.476 -0.99,-0.404 -1.882,-1.038 -2.591,-1.838 -0.6,-0.675 -1.067,-1.466 -1.367,-2.318 -0.263,-0.747 -0.391,-1.532 -0.396,-2.323 V 302 h 6 v -2 h 16 z m -8,2 1.355,3.147 3.411,0.316 -2.573,2.261 0.807,3.276 -3,-1.683 -3,1.683 0.807,-3.276 -2.573,-2.261 3.411,-0.316 z m 8,0 v 7.9 c 0.104,-0.021 0.207,-0.046 0.31,-0.073 0.431,-0.12 0.845,-0.291 1.23,-0.519 1.025,-0.606 1.816,-1.576 2.197,-2.704 0.176,-0.519 0.26,-1.06 0.263,-1.607 V 304 c -1.333,0 -2.667,0 -4,0 z m -20,0 c 0,1.043 -0.018,2.087 0.002,3.129 0.003,0.107 0.009,0.214 0.018,0.32 0.047,0.495 0.161,0.98 0.349,1.441 0.442,1.082 1.268,1.99 2.302,2.536 0.416,0.219 0.86,0.375 1.32,0.472 L 296,311.9 V 304 c -1.333,0 -2.667,0 -4,0 z"
           id="path4"
           inkscape:connector-curvature="0"
           style="fill:#bfe7ff;fill-opacity:0.94117647" /></g></g></g><text
     x="0"
     y="39"
     font-size="5px"
     font-weight="bold"
     id="text12"
     style="font-weight:bold;font-size:5px;font-family:'Helvetica Neue', Helvetica, Arial-Unicode, Arial, Sans-serif;fill:#000000">Created by Explanaicon</text>
<text
     x="0"
     y="44"
     font-size="5px"
     font-weight="bold"
     id="text14"
     style="font-weight:bold;font-size:5px;font-family:'Helvetica Neue', Helvetica, Arial-Unicode, Arial, Sans-serif;fill:#000000">from the Noun Project</text>
</svg>