<?xml version="1.0" encoding="UTF-8" standalone="no"?>
<svg
   xmlns:dc="http://purl.org/dc/elements/1.1/"
   xmlns:cc="http://creativecommons.org/ns#"
   xmlns:rdf="http://www.w3.org/1999/02/22-rdf-syntax-ns#"
   xmlns:svg="http://www.w3.org/2000/svg"
   xmlns="http://www.w3.org/2000/svg"
   height="32"
   width="32"
   id="svg16"
   stroke-miterlimit="1.41421"
   y="0px"
   x="0px"
   style="clip-rule:evenodd;fill-rule:evenodd;stroke-linejoin:round;stroke-miterlimit:1.41420996"
   xml:space="preserve"
   version="1.1"
   viewBox="0 0 32 32"><metadata
   id="metadata22"><rdf:RDF><cc:Work
       rdf:about=""><dc:format>image/svg+xml</dc:format><dc:type
         rdf:resource="http://purl.org/dc/dcmitype/StillImage" /><dc:title></dc:title></cc:Work></rdf:RDF></metadata><defs
   id="defs20" />
   <g  id="g8">
     <path
       d="M 24,30 H 8 c 0,0 0,-0.001 0,-0.002 0,-1.06 0.421,-2.077 1.171,-2.827 0.75,-0.75 1.767,-1.171 2.827,-1.171 2.444,0 5.558,0 8.002,0 2.209,0 4,1.791 4,4 z M 24,4 h 6 c 0,1.668 0,3.335 0,5.003 -0.005,0.791 -0.133,1.576 -0.396,2.323 -0.319,0.905 -0.826,1.741 -1.479,2.443 -0.749,0.804 -1.686,1.428 -2.718,1.806 -0.533,0.195 -1.086,0.321 -1.648,0.382 C 23.133,18.445 21.342,20.47 19,21.418 V 24 H 13 V 21.418 C 10.658,20.471 8.867,18.446 8.241,15.958 7.594,15.886 6.959,15.729 6.354,15.482 5.364,15.078 4.472,14.444 3.763,13.644 3.163,12.969 2.696,12.178 2.396,11.326 2.133,10.579 2.005,9.794 2,9.003 V 4 H 8 V 2 h 16 z m -8,2 1.355,3.147 3.411,0.316 -2.573,2.261 L 19,15 16,13.317 13,15 13.807,11.724 11.234,9.463 14.645,9.147 Z m 8,0 v 7.9 c 0.104,-0.021 0.207,-0.046 0.31,-0.073 0.431,-0.12 0.845,-0.291 1.23,-0.519 1.025,-0.606 1.816,-1.576 2.197,-2.704 0.176,-0.519 0.26,-1.06 0.263,-1.607 V 6 C 26.667,6 25.333,6 24,6 Z M 4,6 c 0,1.043 -0.018,2.087 0.002,3.129 0.003,0.107 0.009,0.214 0.018,0.32 0.047,0.495 0.161,0.98 0.349,1.441 0.442,1.082 1.268,1.99 2.302,2.536 0.416,0.219 0.86,0.375 1.32,0.472 L 8,13.9 V 6 C 6.667,6 5.333,6 4,6 Z"
       id="path4"
        /></g>
</svg>