<?xml version="1.0" encoding="UTF-8" standalone="no"?>
<svg
   xmlns:dc="http://purl.org/dc/elements/1.1/"
   xmlns:cc="http://creativecommons.org/ns#"
   xmlns:rdf="http://www.w3.org/1999/02/22-rdf-syntax-ns#"
   xmlns:svg="http://www.w3.org/2000/svg"
   xmlns="http://www.w3.org/2000/svg"
   xmlns:sodipodi="http://sodipodi.sourceforge.net/DTD/sodipodi-0.dtd"
   xmlns:inkscape="http://www.inkscape.org/namespaces/inkscape"
   viewBox="0 0 32 32"
   version="1.1"
   xml:space="preserve"
   style="clip-rule:evenodd;fill-rule:evenodd;stroke-linejoin:round;stroke-miterlimit:1.41420996"
   x="0px"
   y="0px"
   stroke-miterlimit="1.41421"
   id="svg16"
   sodipodi:docname="education.svg"
   width="32"
   height="32"
   inkscape:export-filename="C:\Users\clt596\Documents\Personal Website\cbteeple.github.io\img\icons\education.png"
   inkscape:export-xdpi="768"
   inkscape:export-ydpi="768"
   inkscape:version="0.92.3 (2405546, 2018-03-11)"><metadata
     id="metadata22"><rdf:RDF><cc:Work
         rdf:about=""><dc:format>image/svg+xml</dc:format><dc:type
           rdf:resource="http://purl.org/dc/dcmitype/StillImage" /><dc:title></dc:title></cc:Work></rdf:RDF></metadata><defs
     id="defs20" /><sodipodi:namedview
     pagecolor="#ffffff"
     bordercolor="#666666"
     borderopacity="1"
     objecttolerance="10"
     gridtolerance="10"
     guidetolerance="10"
     inkscape:pageopacity="0"
     inkscape:pageshadow="2"
     inkscape:window-width="2560"
     inkscape:window-height="1330"
     id="namedview18"
     showgrid="false"
     inkscape:zoom="16.68772"
     inkscape:cx="17.819369"
     inkscape:cy="11.752116"
     inkscape:window-x="-12"
     inkscape:window-y="-12"
     inkscape:window-maximized="1"
     inkscape:current-layer="g8" /><g
     transform="translate(-128,-320)"
     id="g10"><g
       transform="translate(128,320)"
       id="g8"><rect
         x="0"
         y="0"
         width="32"
         height="32"
         style="fill:none"
         id="rect2" /><g
         transform="translate(-256,-128)"
         id="g6"
         style="fill:#bfe7ff;fill-opacity:1"><path
           d="m 285,152.287 c 0.598,0.346 1,0.992 1,1.732 0,1.104 -0.896,2 -2,2 -1.104,0 -2,-0.896 -2,-2 0,-0.74 0.402,-1.386 1,-1.732 v -11.642 l 2,-0.923 z m -4.999,-10.257 c 0.004,2.034 0.024,4.069 -0.002,6.104 -0.003,0.076 -0.003,0.076 -0.008,0.153 -0.02,0.228 -0.06,0.452 -0.127,0.671 -0.31,1.014 -1.097,1.801 -1.966,2.367 -0.162,0.106 -0.328,0.206 -0.498,0.298 -0.199,0.108 -0.402,0.21 -0.608,0.304 -0.612,0.279 -1.252,0.494 -1.903,0.66 -0.782,0.201 -1.581,0.331 -2.385,0.403 -1.207,0.108 -2.428,0.087 -3.63,-0.068 -1.025,-0.131 -2.041,-0.362 -3.01,-0.724 -0.275,-0.103 -0.547,-0.217 -0.813,-0.344 -0.178,-0.085 -0.354,-0.176 -0.527,-0.273 -0.143,-0.081 -0.284,-0.166 -0.422,-0.256 -0.807,-0.526 -1.542,-1.238 -1.892,-2.153 -0.055,-0.141 -0.099,-0.286 -0.133,-0.433 -0.051,-0.223 -0.074,-0.448 -0.077,-0.676 v -6.033 l 9,4.154 z M 271,131.981 l -13,6 13,6 13,-6 z"
           id="path4"
           inkscape:connector-curvature="0"
           style="fill:#bfe7ff;fill-opacity:1" /></g></g></g><text
     x="0"
     y="39"
     font-size="5px"
     font-weight="bold"
     id="text12"
     style="font-weight:bold;font-size:5px;font-family:'Helvetica Neue', Helvetica, Arial-Unicode, Arial, Sans-serif;fill:#000000">Created by Explanaicon</text>
<text
     x="0"
     y="44"
     font-size="5px"
     font-weight="bold"
     id="text14"
     style="font-weight:bold;font-size:5px;font-family:'Helvetica Neue', Helvetica, Arial-Unicode, Arial, Sans-serif;fill:#000000">from the Noun Project</text>
</svg>