<?xml version="1.0" encoding="UTF-8" standalone="no"?>
<svg
   xmlns:dc="http://purl.org/dc/elements/1.1/"
   xmlns:cc="http://creativecommons.org/ns#"
   xmlns:rdf="http://www.w3.org/1999/02/22-rdf-syntax-ns#"
   xmlns:svg="http://www.w3.org/2000/svg"
   xmlns="http://www.w3.org/2000/svg"
   height="32"
   width="32"
   id="svg16"
   stroke-miterlimit="1.41421"
   y="0px"
   x="0px"
   style="clip-rule:evenodd;fill-rule:evenodd;stroke-linejoin:round;stroke-miterlimit:1.41420996"
   xml:space="preserve"
   version="1.1"
   viewBox="0 0 32 32"><metadata
   id="metadata22"><rdf:RDF><cc:Work
       rdf:about=""><dc:format>image/svg+xml</dc:format><dc:type
         rdf:resource="http://purl.org/dc/dcmitype/StillImage" /><dc:title></dc:title></cc:Work></rdf:RDF></metadata><defs
   id="defs20" /><g
     id="g8"
     ><path
       d="m 29,24.287 c 0.598,0.346 1,0.992 1,1.732 0,1.104 -0.896,2 -2,2 -1.104,0 -2,-0.896 -2,-2 0,-0.74 0.402,-1.386 1,-1.732 V 12.645 l 2,-0.923 z M 24.001,14.03 c 0.004,2.034 0.024,4.069 -0.002,6.104 -0.003,0.076 -0.003,0.076 -0.008,0.153 -0.02,0.228 -0.06,0.452 -0.127,0.671 -0.31,1.014 -1.097,1.801 -1.966,2.367 -0.162,0.106 -0.328,0.206 -0.498,0.298 -0.199,0.108 -0.402,0.21 -0.608,0.304 -0.612,0.279 -1.252,0.494 -1.903,0.66 -0.782,0.201 -1.581,0.331 -2.385,0.403 -1.207,0.108 -2.428,0.087 -3.63,-0.068 C 11.849,24.791 10.833,24.56 9.864,24.198 9.589,24.095 9.317,23.981 9.051,23.854 8.873,23.769 8.697,23.678 8.524,23.581 8.381,23.5 8.24,23.415 8.102,23.325 7.295,22.799 6.56,22.087 6.21,21.172 6.155,21.031 6.111,20.886 6.077,20.739 6.026,20.516 6.003,20.291 6,20.063 V 14.03 l 9,4.154 z M 15,3.981 l -13,6 13,6 13,-6 z"
       id="path4"
        /></g>

</svg>