<?xml version="1.0" encoding="UTF-8" standalone="no"?>
<svg
   xmlns:dc="http://purl.org/dc/elements/1.1/"
   xmlns:cc="http://creativecommons.org/ns#"
   xmlns:rdf="http://www.w3.org/1999/02/22-rdf-syntax-ns#"
   xmlns:svg="http://www.w3.org/2000/svg"
   xmlns="http://www.w3.org/2000/svg"
   xmlns:sodipodi="http://sodipodi.sourceforge.net/DTD/sodipodi-0.dtd"
   xmlns:inkscape="http://www.inkscape.org/namespaces/inkscape"
   viewBox="0 0 32 32"
   version="1.1"
   xml:space="preserve"
   style="clip-rule:evenodd;fill-rule:evenodd;stroke-linejoin:round;stroke-miterlimit:1.41420996"
   x="0px"
   y="0px"
   stroke-miterlimit="1.41421"
   id="svg16"
   sodipodi:docname="email.svg"
   width="32"
   height="32"
   inkscape:export-filename="C:\Users\clt596\Documents\Personal Website\cbteeple.github.io\img\icons\email.png"
   inkscape:export-xdpi="768"
   inkscape:export-ydpi="768"
   inkscape:version="0.92.3 (2405546, 2018-03-11)"><metadata
     id="metadata22"><rdf:RDF><cc:Work
         rdf:about=""><dc:format>image/svg+xml</dc:format><dc:type
           rdf:resource="http://purl.org/dc/dcmitype/StillImage" /><dc:title></dc:title></cc:Work></rdf:RDF></metadata><defs
     id="defs20" /><sodipodi:namedview
     pagecolor="#ffffff"
     bordercolor="#666666"
     borderopacity="1"
     objecttolerance="10"
     gridtolerance="10"
     guidetolerance="10"
     inkscape:pageopacity="0"
     inkscape:pageshadow="2"
     inkscape:window-width="2560"
     inkscape:window-height="1330"
     id="namedview18"
     showgrid="false"
     inkscape:zoom="5.9"
     inkscape:cx="16"
     inkscape:cy="20"
     inkscape:window-x="-12"
     inkscape:window-y="-12"
     inkscape:window-maximized="1"
     inkscape:current-layer="g8" /><g
     transform="translate(-64,-320)"
     id="g10"><g
       transform="translate(64,320)"
       id="g8"><rect
         x="0"
         y="0"
         width="32"
         height="32"
         style="fill:none"
         id="rect2" /><g
         transform="translate(-114)"
         id="g6"
         style="fill:#bfe7ff;fill-opacity:1"><path
           d="m 117.414,26 8.594,-8.594 c 0.439,0.391 0.931,0.718 1.466,0.967 0.658,0.305 1.371,0.489 2.095,0.541 0.865,0.062 1.741,-0.065 2.552,-0.371 0.69,-0.261 1.321,-0.649 1.871,-1.136 L 142.586,26 Z M 124.586,16 116,24.586 V 7.414 Z M 144,7.444 v 17.142 l -8.567,-8.567 C 138.325,13.197 141.16,10.318 144,7.444 Z M 142.586,6 l -9.755,9.755 c -0.382,0.377 -0.828,0.679 -1.325,0.881 -1.004,0.407 -2.158,0.387 -3.146,-0.057 -0.412,-0.185 -0.785,-0.441 -1.114,-0.749 -0.149,-0.144 -0.299,-0.288 -0.448,-0.432 -0.012,-0.016 -0.024,-0.032 -0.038,-0.047 -0.054,-0.064 -0.116,-0.121 -0.185,-0.169 C 123.464,12.167 120.42,9.083 117.376,6 Z"
           id="path4"
           inkscape:connector-curvature="0"
           style="fill:#bfe7ff;fill-opacity:1" /></g></g></g><text
     x="0"
     y="39"
     font-size="5px"
     font-weight="bold"
     id="text12"
     style="font-weight:bold;font-size:5px;font-family:'Helvetica Neue', Helvetica, Arial-Unicode, Arial, Sans-serif;fill:#000000">Created by Explanaicon</text>
<text
     x="0"
     y="44"
     font-size="5px"
     font-weight="bold"
     id="text14"
     style="font-weight:bold;font-size:5px;font-family:'Helvetica Neue', Helvetica, Arial-Unicode, Arial, Sans-serif;fill:#000000">from the Noun Project</text>
</svg>