<?xml version="1.0" encoding="UTF-8" standalone="no"?>
<svg
   xmlns:dc="http://purl.org/dc/elements/1.1/"
   xmlns:cc="http://creativecommons.org/ns#"
   xmlns:rdf="http://www.w3.org/1999/02/22-rdf-syntax-ns#"
   xmlns:svg="http://www.w3.org/2000/svg"
   xmlns="http://www.w3.org/2000/svg"
   height="32"
   width="32"
   id="svg16"
   stroke-miterlimit="1.41421"
   y="0px"
   x="0px"
   style="clip-rule:evenodd;fill-rule:evenodd;stroke-linejoin:round;stroke-miterlimit:1.41420996"
   xml:space="preserve"
   version="1.1"
   viewBox="0 0 32 32"><metadata
   id="metadata22"><rdf:RDF><cc:Work
       rdf:about=""><dc:format>image/svg+xml</dc:format><dc:type
         rdf:resource="http://purl.org/dc/dcmitype/StillImage" /><dc:title></dc:title></cc:Work></rdf:RDF></metadata><defs
   id="defs20" /><g
     id="g8">
     <path
       d="m 3.414,26 8.594,-8.594 c 0.439,0.391 0.931,0.718 1.466,0.967 0.658,0.305 1.371,0.489 2.095,0.541 0.865,0.062 1.741,-0.065 2.552,-0.371 0.69,-0.261 1.321,-0.649 1.871,-1.136 L 28.586,26 Z M 10.586,16 2,24.586 V 7.414 Z M 30,7.444 V 24.586 L 21.433,16.019 C 24.325,13.197 27.16,10.318 30,7.444 Z M 28.586,6 18.831,15.755 c -0.382,0.377 -0.828,0.679 -1.325,0.881 -1.004,0.407 -2.158,0.387 -3.146,-0.057 C 13.948,16.394 13.575,16.138 13.246,15.83 13.097,15.686 12.947,15.542 12.798,15.398 12.786,15.382 12.774,15.366 12.76,15.351 12.706,15.287 12.644,15.23 12.575,15.182 9.464,12.167 6.42,9.083 3.376,6 Z"
       id="path4"
        /></g>

</svg>