<?xml version="1.0" encoding="UTF-8" standalone="no"?>
<svg
   xmlns:dc="http://purl.org/dc/elements/1.1/"
   xmlns:cc="http://creativecommons.org/ns#"
   xmlns:rdf="http://www.w3.org/1999/02/22-rdf-syntax-ns#"
   xmlns:svg="http://www.w3.org/2000/svg"
   xmlns="http://www.w3.org/2000/svg"
   id="svg1770"
   version="1.1"
   viewBox="0 0 42 42"
   height="42mm"
   width="42mm">
  <defs
     id="defs1764" />
  <metadata
     id="metadata1767">
    <rdf:RDF>
      <cc:Work
         rdf:about="">
        <dc:format>image/svg+xml</dc:format>
        <dc:type
           rdf:resource="http://purl.org/dc/dcmitype/StillImage" />
        <dc:title></dc:title>
      </cc:Work>
    </rdf:RDF>
  </metadata>
  <g
     transform="translate(-93.601216,-102.66442)"
     id="layer1">
    <path
       d="m 114.60122,105.09876 c -10.51174,0 -19.035687,8.52205 -19.035687,19.03569 0,8.41015 5.454307,15.54554 13.017767,18.06259 0.95134,0.17621 1.30061,-0.41294 1.30061,-0.91572 0,-0.45361 -0.0177,-1.95344 -0.0259,-3.54405 -5.29575,1.15151 -6.41321,-2.24597 -6.41321,-2.24597 -0.86592,-2.19994 -2.11357,-2.78531 -2.11357,-2.78531 -1.72711,-1.18145 0.13018,-1.15718 0.13018,-1.15718 1.91152,0.13428 2.91802,1.96195 2.91802,1.96195 1.69779,2.90982 4.45316,2.06849 5.53942,1.5821 0.17116,-1.23 0.66417,-2.07007 1.20856,-2.54543 -4.22808,-0.48103 -8.67273,-2.11357 -8.67273,-9.40751 0,-2.07795 0.74361,-3.77606 1.96132,-5.10914 -0.19765,-0.47977 -0.84921,-2.41587 0.18472,-5.03789 0,0 1.5985,-0.51129 5.23585,1.95155 1.51843,-0.42177 3.14688,-0.63329 4.7646,-0.64085 1.61772,0.008 3.24743,0.21908 4.76869,0.64085 3.63326,-2.46284 5.22955,-1.95155 5.22955,-1.95155 1.03614,2.62202 0.38458,4.55812 0.18693,5.03789 1.22054,1.33308 1.9588,3.03119 1.9588,5.10914 0,7.3116 -4.45316,8.92112 -8.69196,9.39238 0.68277,0.59073 1.29115,1.74918 1.29115,3.52514 0,2.547 -0.0217,4.5969 -0.0217,5.22388 0,0.50688 0.34233,1.10044 1.30723,0.91351 7.55968,-2.51989 13.00705,-9.65275 13.00705,-18.06038 0,-10.51364 -8.52269,-19.03569 -19.03569,-19.03569"
       id="path1040" />
  </g>
</svg>
