<?xml version="1.0" encoding="UTF-8" standalone="no"?>
<svg
   xmlns:dc="http://purl.org/dc/elements/1.1/"
   xmlns:cc="http://creativecommons.org/ns#"
   xmlns:rdf="http://www.w3.org/1999/02/22-rdf-syntax-ns#"
   xmlns:svg="http://www.w3.org/2000/svg"
   xmlns="http://www.w3.org/2000/svg"
   height="100"
   width="100"
   id="svg18"
   xml:space="preserve"
   enable-background="new 0 0 100 100"
   viewBox="0 0 100 100"
   y="0px"
   x="0px"
   version="1.1"><metadata
     id="metadata24"><rdf:RDF><cc:Work
         rdf:about=""><dc:format>image/svg+xml</dc:format><dc:type
           rdf:resource="http://purl.org/dc/dcmitype/StillImage" /><dc:title></dc:title></cc:Work></rdf:RDF></metadata><defs
     id="defs22" /><g
     transform="translate(0,-25)"
     style="display:none"
     id="g4"
     display="none"><rect
       style="display:inline;fill:#000000"
       id="rect2"
       height="1263.231"
       width="1370.931"
       display="inline"
       y="-877.172"
       x="-540.87701" /></g><g
     transform="translate(0,-1)"
     id="g12"><g
       id="g10"><path
         id="path6"
         d="M 81.079,10.885 C 76.871,13.147 72.652,11.123 68.569,9.167 64.541,7.235 57.512,6.562 57.068,6.562 c -1.45,0 -2.629,1.179 -2.629,2.629 V 41.306 H 27.583 c -5.631,0 -10.212,4.581 -10.212,10.212 v 17.69 c 0,2.459 2,4.459 4.459,4.459 h 1.073 v 18.435 c 0,2.459 2.001,4.459 4.459,4.459 h 8.435 c 2.459,0 4.459,-2.001 4.459,-4.459 V 50.887 h 14.182 v 17.786 c 0,1.45 1.18,2.629 2.629,2.629 1.45,0 2.629,-1.179 2.629,-2.629 V 49.527 c 2.438,-1.556 3.96,-4.24 4.015,-7.149 l 0.02,-1.071 H 59.696 V 24.672 c 0.264,-0.028 0.519,-0.041 0.768,-0.041 2.893,0 5.77,1.379 8.559,2.717 4.579,2.198 8.906,4.276 13.236,0.576 l 0.369,-0.315 V 10.051 Z" /><path
         id="path8"
         d="m 31.58,39.74 c 5.393,0 9.78,-4.388 9.78,-9.78 0,-5.392 -4.387,-9.78 -9.78,-9.78 -5.393,0 -9.78,4.388 -9.78,9.78 0,5.392 4.388,9.78 9.78,9.78 z" /></g></g></svg>