<?xml version="1.0" encoding="UTF-8" standalone="no"?>
<svg
   xmlns:dc="http://purl.org/dc/elements/1.1/"
   xmlns:cc="http://creativecommons.org/ns#"
   xmlns:rdf="http://www.w3.org/1999/02/22-rdf-syntax-ns#"
   xmlns:svg="http://www.w3.org/2000/svg"
   xmlns="http://www.w3.org/2000/svg"
   id="svg2332"
   version="1.1"
   viewBox="0 0 67.733334 67.733334"
   height="256"
   width="256">
  <defs
     id="defs2326" />
  <metadata
     id="metadata2329">
    <rdf:RDF>
      <cc:Work
         rdf:about="">
        <dc:format>image/svg+xml</dc:format>
        <dc:type
           rdf:resource="http://purl.org/dc/dcmitype/StillImage" />
        <dc:title></dc:title>
      </cc:Work>
    </rdf:RDF>
  </metadata>
  <g
     transform="translate(-79.526199,-87.752383)"
     id="layer1">
    <path
       id="path2895"
       d="m 85.380088,151.58828 c -1.451689,-0.35244 -1.631941,-0.50773 -1.88748,-1.6261 -0.324832,-1.42164 -0.324832,-55.26461 0,-56.686247 0.260654,-1.140762 0.41416,-1.263323 2.068169,-1.651253 1.589313,-0.372755 54.074863,-0.372755 55.664183,0 1.654,0.38793 1.80751,0.510491 2.06816,1.651253 0.32484,1.421637 0.32484,55.264607 0,56.686247 -0.26065,1.14076 -0.41416,1.26332 -2.06816,1.65125 -1.45452,0.34114 -54.434373,0.31728 -55.844872,-0.0251 z M 100.62755,128.4745 v -13.94729 h -4.018711 -4.018711 v 13.94729 13.94729 h 4.018711 4.018711 z m 13.72127,5.37798 c 0.008,-6.3531 0.0888,-8.7888 0.31375,-9.41801 1.03679,-2.90049 4.19785,-4.46163 7.61395,-3.76029 1.14423,0.23492 1.57318,0.4674 2.35156,1.27451 0.52363,0.54295 1.08211,1.42128 1.24107,1.95186 0.20527,0.68511 0.28903,3.5087 0.28903,9.74297 v 8.77827 h 4.01871 4.01871 l -0.006,-7.97832 c -0.009,-11.39357 -0.27019,-13.32579 -2.18528,-16.17507 -2.4459,-3.63904 -6.88451,-5.25794 -10.99379,-4.00979 -1.92546,0.58484 -4.25547,2.06468 -5.30276,3.36789 -0.47764,0.59436 -0.93382,0.91942 -1.29029,0.91942 -0.53439,0 -0.55142,-0.0621 -0.55142,-2.00935 v -2.00936 h -3.78232 -3.78232 v 13.94729 13.94729 h 4.01871 4.01871 l 0.0104,-8.56931 z M 99.030359,108.47315 c 2.114721,-1.48958 2.629531,-4.05375 1.216601,-6.05964 -1.489579,-2.11472 -4.053745,-2.629534 -6.059642,-1.21661 -2.11472,1.48959 -2.629531,4.05375 -1.216603,6.05965 1.489582,2.11472 4.053747,2.62953 6.059644,1.2166 z"
        />
  </g>
</svg>
