<?xml version="1.0" encoding="UTF-8" standalone="no"?>
<svg
   xmlns:dc="http://purl.org/dc/elements/1.1/"
   xmlns:cc="http://creativecommons.org/ns#"
   xmlns:rdf="http://www.w3.org/1999/02/22-rdf-syntax-ns#"
   xmlns:svg="http://www.w3.org/2000/svg"
   xmlns="http://www.w3.org/2000/svg"
   height="48"
   width="48"
   id="svg26"
   xml:space="preserve"
   enable-background="new 0 0 48 48"
   viewBox="0 0 48 48"
   y="0px"
   x="0px"
   version="1.1"><metadata
     id="metadata32"><rdf:RDF><cc:Work
         rdf:about=""><dc:format>image/svg+xml</dc:format><dc:type
           rdf:resource="http://purl.org/dc/dcmitype/StillImage" /><dc:title></dc:title></cc:Work></rdf:RDF></metadata><defs
     id="defs30" /><g
     id="g24"><path
       id="path2"
       d="m 28.8,42.9 h -9.6 c -0.6,0 -1,0.4 -1,1 0,0.6 0.4,1 1,1 h 9.6 c 0.6,0 1,-0.4 1,-1 0,-0.6 -0.4,-1 -1,-1 z" /><path
       id="path4"
       d="m 24,8.7 c -0.5,0 -0.9,0 -1.4,0.1 -5.3,0.6 -9.8,4.9 -10.6,10.2 -0.5,3.4 0.3,6.8 2.5,9.5 2.3,2.9 3.5,6.1 3.5,9.5 0,0.6 0.4,1 1,1 h 10.2 c 0.6,0 1,-0.4 1,-1 0,-3.5 1.1,-6.7 3.2,-9.1 1.9,-2.2 2.9,-5 2.9,-7.9 C 36.2,14.2 30.7,8.7 24,8.7 Z m 0.6,28.2 h -1.3 l -0.6,-9.8 c 0.8,0.1 1.7,0.1 2.5,0 z m 7.1,-9.4 c -2.2,2.5 -3.4,5.8 -3.6,9.4 h -1.5 l 0.6,-10.1 c 2.5,-0.5 4.6,-1.6 4.6,-3.6 0,-1.8 -1.4,-3.2 -3.2,-3.2 -1.8,0 -3.2,1.4 -3.2,3.1 L 25.3,25 c -0.9,0.1 -1.9,0.1 -2.8,0 L 22.4,23.2 C 22.4,21.4 21,20 19.2,20 17.4,20 16,21.4 16,23.2 c 0,0.9 0.5,2.2 2.8,3.1 0.5,0.2 1.2,0.4 1.8,0.5 l 0.6,10.1 H 19.7 C 19.5,33.5 18.2,30.2 15.8,27.2 14,25 13.3,22.1 13.7,19.3 c 0.7,-4.4 4.4,-8 8.9,-8.5 0.4,0 0.8,-0.1 1.2,-0.1 5.6,0 10.2,4.6 10.2,10.2 0.2,2.4 -0.7,4.8 -2.3,6.6 z m -4.3,-2.7 0.1,-1.5 c 0,-0.7 0.5,-1.2 1.2,-1.2 0.7,0 1.2,0.5 1.2,1.2 0,0.5 -0.9,1.1 -2.5,1.5 z m -6.8,0 c -1.6,-0.4 -2.5,-1 -2.5,-1.5 0,-0.7 0.5,-1.2 1.2,-1.2 0.7,0 1.2,0.5 1.2,1.3 z" /><path
       id="path6"
       d="m 44.2,20.2 h -5.5 c -0.6,0 -1,0.4 -1,1 0,0.6 0.4,1 1,1 h 5.5 c 0.6,0 1,-0.4 1,-1 0,-0.6 -0.5,-1 -1,-1 z" /><path
       id="path8"
       d="m 10.3,21.2 c 0,-0.6 -0.4,-1 -1,-1 H 3.8 c -0.6,0 -1,0.4 -1,1 0,0.6 0.4,1 1,1 h 5.5 c 0.6,0 1,-0.5 1,-1 z" /><path
       id="path10"
       d="m 24,7.2 c 0.6,0 1,-0.4 1,-1 V 1 C 25,0.4 24.6,0 24,0 23.4,0 23,0.4 23,1 v 5.2 c 0,0.6 0.4,1 1,1 z" /><path
       id="path12"
       d="M 39,6.2 C 38.6,5.8 38,5.8 37.6,6.2 L 33.8,10 c -0.4,0.4 -0.4,1 0,1.4 0.5,0.4 1,0.4 1.4,0 L 39,7.6 c 0.4,-0.4 0.4,-1 0,-1.4 z" /><path
       id="path14"
       d="m 14.3,30.9 c -0.4,-0.4 -1,-0.4 -1.4,0 L 9,34.8 c -0.4,0.4 -0.4,1 0,1.4 0.5,0.4 1,0.4 1.4,0 l 3.9,-3.9 c 0.4,-0.4 0.4,-1 0,-1.4 z" /><path
       id="path16"
       d="m 39,34.8 -3.9,-3.9 c -0.4,-0.4 -1,-0.4 -1.4,0 -0.4,0.4 -0.4,1 0,1.4 l 3.9,3.9 c 0.5,0.4 1,0.4 1.4,0 0.4,-0.4 0.4,-1 0,-1.4 z" /><path
       id="path18"
       d="M 14.2,9.9 10.5,6.2 c -0.4,-0.4 -1,-0.4 -1.4,0 -0.4,0.4 -0.4,1 0,1.4 l 3.7,3.7 c 0.5,0.4 1,0.4 1.4,0 0.4,-0.3 0.4,-1 0,-1.4 z" /><path
       id="path20"
       d="m 28.8,39.8 h -9.6 c -0.6,0 -1,0.4 -1,1 0,0.6 0.4,1 1,1 h 9.6 c 0.6,0 1,-0.4 1,-1 0,-0.6 -0.4,-1 -1,-1 z" /><path
       id="path22"
       d="m 26.3,46 h -4.2 c -0.6,0 -1,0.4 -1,1 0,0.6 0.4,1 1,1 h 4.2 c 0.6,0 1,-0.4 1,-1 0,-0.6 -0.5,-1 -1,-1 z" /></g></svg>