<?xml version="1.0" encoding="UTF-8" standalone="no"?>
<svg
   xmlns:dc="http://purl.org/dc/elements/1.1/"
   xmlns:cc="http://creativecommons.org/ns#"
   xmlns:rdf="http://www.w3.org/1999/02/22-rdf-syntax-ns#"
   xmlns:svg="http://www.w3.org/2000/svg"
   xmlns="http://www.w3.org/2000/svg"
   height="100"
   width="100"
   id="svg10"
   xml:space="preserve"
   viewBox="0 0 100 100"
   y="0px"
   x="0px"
   version="1.1"><metadata
     id="metadata16"><rdf:RDF><cc:Work
         rdf:about=""><dc:format>image/svg+xml</dc:format><dc:type
           rdf:resource="http://purl.org/dc/dcmitype/StillImage" /><dc:title></dc:title></cc:Work></rdf:RDF></metadata><defs
     id="defs14" /><g
     transform="matrix(0.90466102,0,0,0.90466102,4.766949,4.766949)"
     id="g4"><path
       id="path2"
       d="M 83.809,25 H 63.889 V 5.079 Z M 27.778,38.889 H 44.445 V 16.667 H 27.778 Z M 88.889,30.556 V 100 H 11.111 V 0 H 58.333 V 30.556 Z M 22.222,44.444 H 50 V 11.111 H 22.222 Z m 0,22.223 H 55.555 V 61.111 H 22.222 Z m 0,11.11 H 55.555 V 72.222 H 22.222 Z m 55.555,5.556 H 22.222 v 5.556 h 55.555 z m 0,-22.222 H 61.111 V 77.777 H 77.777 Z M 77.777,50 H 22.222 v 5.556 h 55.555 z m 0,-11.111 H 55.556 v 5.556 h 22.222 v -5.556 z m -5.554,27.778 h -5.557 v 5.556 h 5.557 z" /></g></svg>