<?xml version="1.0" encoding="UTF-8" standalone="no"?>
<svg
   xmlns:dc="http://purl.org/dc/elements/1.1/"
   xmlns:cc="http://creativecommons.org/ns#"
   xmlns:rdf="http://www.w3.org/1999/02/22-rdf-syntax-ns#"
   xmlns:svg="http://www.w3.org/2000/svg"
   xmlns="http://www.w3.org/2000/svg"
   height="24"
   width="24"
   id="svg24"
   xml:space="preserve"
   viewBox="0 0 24 24"
   y="0px"
   x="0px"
   version="1.1"><metadata
   id="metadata30"><rdf:RDF><cc:Work
       rdf:about=""><dc:format>image/svg+xml</dc:format><dc:type
         rdf:resource="http://purl.org/dc/dcmitype/StillImage" /><dc:title></dc:title></cc:Work></rdf:RDF></metadata><defs
   id="defs28" /><g
   transform="matrix(0.88347458,0,0,0.88347458,1.398305,1.398305)"
   id="g18"><g
     id="g16" /><path
     d="m 21.318,7.311 -5.37,-4.294 c -0.162,1.082 -0.816,1.994 -1.732,2.514 l 5.817,3.64 C 20.141,8.365 20.63,7.684 21.318,7.311 Z M 15,2.5 A 2.5,2.5 0 0 1 12.5,5 2.5,2.5 0 0 1 10,2.5 2.5,2.5 0 0 1 12.5,0 2.5,2.5 0 0 1 15,2.5 Z M 9.466,4.211 5.104,11.11 C 5.393,11.043 5.691,11 6,11 c 1.593,0 2.96,0.942 3.603,2.293 L 12.902,5.959 C 12.768,5.975 12.638,6 12.5,6 11.195,6 10.067,5.273 9.466,4.211 Z m 11.985,9.533 c 0.021,-0.08 0.049,-0.157 0.049,-0.244 0,-0.089 -0.029,-0.168 -0.051,-0.25 l 0.992,-1.256 c -0.773,-0.018 -1.453,-0.391 -1.899,-0.959 l -0.444,1.553 C 19.907,12.673 19.76,12.822 19.654,13 H 18.5 C 18.224,13 18,13.224 18,13.5 v 2 c 0,0.276 0.224,0.5 0.5,0.5 0.276,0 0.5,-0.224 0.5,-0.5 V 14 h 0.654 c 0.175,0.293 0.481,0.5 0.846,0.5 0.086,0 0.164,-0.029 0.244,-0.049 L 21.293,15 20.147,16.146 c -0.195,0.195 -0.195,0.512 0,0.707 0.097,0.098 0.225,0.147 0.353,0.147 0.128,0 0.256,-0.049 0.354,-0.146 l 1.5,-1.5 c 0.195,-0.195 0.195,-0.512 0,-0.707 z M 11,16.5 C 11,16.224 10.776,16 10.5,16 H 9 V 15 C 9,13.346 7.654,12 6,12 4.346,12 3,13.346 3,15 v 1 H 1.5 C 1.224,16 1,16.224 1,16.5 V 20 h 10 z m -7,2 C 4,18.776 3.776,19 3.5,19 3.224,19 3,18.776 3,18.5 v -1 C 3,17.224 3.224,17 3.5,17 3.776,17 4,17.224 4,17.5 Z m 2,0 C 6,18.776 5.776,19 5.5,19 5.224,19 5,18.776 5,18.5 v -1 C 5,17.224 5.224,17 5.5,17 5.776,17 6,17.224 6,17.5 Z m 18,-9 A 1.5,1.5 0 0 1 22.5,11 1.5,1.5 0 0 1 21,9.5 1.5,1.5 0 0 1 22.5,8 1.5,1.5 0 0 1 24,9.5 Z M 11.5,21 H 0.5 C 0.224,21 0,21.224 0,21.5 v 2 C 0,23.776 0.224,24 0.5,24 h 11 c 0.276,0 0.5,-0.224 0.5,-0.5 v -2 C 12,21.224 11.776,21 11.5,21 Z"
     id="path14" /></g>
</svg>