<?xml version="1.0" encoding="UTF-8" standalone="no"?>
<svg
   xmlns:dc="http://purl.org/dc/elements/1.1/"
   xmlns:cc="http://creativecommons.org/ns#"
   xmlns:rdf="http://www.w3.org/1999/02/22-rdf-syntax-ns#"
   xmlns:svg="http://www.w3.org/2000/svg"
   xmlns="http://www.w3.org/2000/svg"
   xmlns:sodipodi="http://sodipodi.sourceforge.net/DTD/sodipodi-0.dtd"
   xmlns:inkscape="http://www.inkscape.org/namespaces/inkscape"
   xml:space="preserve"
   version="1.1"
   style="clip-rule:evenodd;fill-rule:evenodd;image-rendering:optimizeQuality;shape-rendering:geometricPrecision;text-rendering:geometricPrecision"
   viewBox="0 0 300 300"
   x="0px"
   y="0px"
   id="svg28"
   sodipodi:docname="teaching_p.svg"
   width="300"
   height="300"
   inkscape:export-filename="C:\Users\clt596\Documents\Personal Website\cbteeple.github.io\img\icons\teaching.png"
   inkscape:export-xdpi="81.919998"
   inkscape:export-ydpi="81.919998"
   inkscape:version="0.92.3 (2405546, 2018-03-11)"><metadata
     id="metadata32"><rdf:RDF><cc:Work
         rdf:about=""><dc:format>image/svg+xml</dc:format><dc:type
           rdf:resource="http://purl.org/dc/dcmitype/StillImage" /><dc:title></dc:title></cc:Work></rdf:RDF></metadata><sodipodi:namedview
     pagecolor="#ffffff"
     bordercolor="#666666"
     borderopacity="1"
     objecttolerance="10"
     gridtolerance="10"
     guidetolerance="10"
     inkscape:pageopacity="0"
     inkscape:pageshadow="2"
     inkscape:window-width="2560"
     inkscape:window-height="1330"
     id="namedview30"
     showgrid="false"
     fit-margin-top="0"
     fit-margin-left="0"
     fit-margin-right="0"
     fit-margin-bottom="0"
     inkscape:zoom="0.61298701"
     inkscape:cx="-210.87288"
     inkscape:cy="131.55225"
     inkscape:window-x="-12"
     inkscape:window-y="-12"
     inkscape:window-maximized="1"
     inkscape:current-layer="g22" />

     <defs
     id="defs4"><style
       type="text/css"
       id="style2">
   
    .fil0 {fill:black}
    .fil1 {fill:black}
    .fil2 {fill:black;fill-rule:nonzero}
   
  </style></defs>

  <g
     id="g22"
     transform="matrix(0.86867027,0,0,0.86867027,27.083157,16.224778)">
     <path
       id="polygon20"
       d="m 26,73 h 10 v 72 l 53,-40 33,11 23,-20 -5,-6 21,-3 -6,21 -4,-5 -27,24 -33,-11 -47,35 h 100 2 v 9 H 31 26 v -4 z m 132,217 v 18 H 88 v -18 c 0,-46 70,-46 70,0 z m -83,0 v 18 H 6 v -18 c 0,-46 69,-46 69,0 z m 70,-62 c 0,29 -44,29 -44,0 0,-30 44,-30 44,0 z m -82,0 c 0,29 -45,29 -45,0 0,-30 45,-30 45,0 z M 276,28 c 0,29 -45,29 -45,0 0,-30 45,-30 45,0 z m -23,28 v 0 c 17,0 30,14 30,30 0,46 0,93 0,139 0,18 -27,18 -27,0 v -56 c 0,-4 -6,-4 -6,0 v 56 c 0,18 -27,18 -27,0 0,-46 0,-93 0,-139 0,-1 0,-2 0,-3 h -58 c -18,0 -18,-27 0,-27 29,0 59,0 88,0 z M 0,0 H 208 V 192 H 0 Z M 15,15 V 177 H 193 V 15 Z" /></g></svg>