<?xml version="1.0" encoding="UTF-8" standalone="no"?>
<svg
   xmlns:dc="http://purl.org/dc/elements/1.1/"
   xmlns:cc="http://creativecommons.org/ns#"
   xmlns:rdf="http://www.w3.org/1999/02/22-rdf-syntax-ns#"
   xmlns:svg="http://www.w3.org/2000/svg"
   xmlns="http://www.w3.org/2000/svg"
   height="32"
   width="32"
   id="svg16"
   stroke-miterlimit="1.41421"
   y="0px"
   x="0px"
   style="clip-rule:evenodd;fill-rule:evenodd;stroke-linejoin:round;stroke-miterlimit:1.41420996"
   xml:space="preserve"
   version="1.1"
   viewBox="0 0 32 32"><metadata
   id="metadata22"><rdf:RDF><cc:Work
       rdf:about=""><dc:format>image/svg+xml</dc:format><dc:type
         rdf:resource="http://purl.org/dc/dcmitype/StillImage" /><dc:title></dc:title></cc:Work></rdf:RDF></metadata><defs
   id="defs20" /><g
   id="g10"
   transform="translate(-192,-128)"><g
     id="g8"
     transform="translate(192,128)"><path
       d="m 28.651,22 c -1.905,4.004 -5.655,6.964 -10.148,7.776 0.217,-0.23 0.414,-0.48 0.593,-0.737 0.105,-0.151 0.205,-0.306 0.3,-0.463 0.12,-0.198 0.232,-0.4 0.337,-0.606 0.131,-0.253 0.251,-0.51 0.364,-0.771 0.155,-0.359 0.296,-0.723 0.424,-1.092 0.154,-0.44 0.29,-0.885 0.413,-1.335 C 21.184,23.86 21.38,22.934 21.533,22 Z M 3.349,22 h 7.118 c 0.153,0.934 0.349,1.86 0.599,2.772 0.123,0.45 0.259,0.895 0.413,1.335 0.128,0.369 0.269,0.733 0.424,1.092 0.113,0.261 0.233,0.518 0.364,0.771 0.105,0.206 0.217,0.408 0.337,0.606 0.095,0.157 0.195,0.312 0.3,0.463 0.179,0.257 0.376,0.507 0.593,0.737 C 9.004,28.964 5.254,26.004 3.349,22 Z m 16.155,0 c -0.086,0.488 -0.185,0.974 -0.298,1.456 -0.22,0.934 -0.493,1.859 -0.859,2.747 -0.253,0.614 -0.55,1.217 -0.938,1.757 -0.072,0.101 -0.148,0.199 -0.228,0.294 -0.057,0.068 -0.117,0.134 -0.179,0.198 -0.042,0.043 -0.085,0.085 -0.13,0.126 -0.252,0.229 -0.575,0.445 -0.93,0.42 -0.19,-0.014 -0.369,-0.094 -0.527,-0.197 C 15.127,28.615 14.889,28.355 14.682,28.084 14.335,27.629 14.061,27.119 13.824,26.599 13.498,25.88 13.243,25.13 13.03,24.371 12.811,23.591 12.636,22.799 12.496,22 Z m 9.915,-10 c 0.378,1.268 0.581,2.61 0.581,4 0,1.39 -0.203,2.732 -0.581,4 h -7.621 c 0.163,-1.573 0.224,-3.157 0.195,-4.738 C 21.974,14.173 21.911,13.084 21.798,12 Z M 2.581,12 h 7.621 c -0.113,1.084 -0.176,2.173 -0.195,3.262 -0.029,1.581 0.032,3.165 0.195,4.738 H 2.581 C 2.203,18.732 2,17.39 2,16 2,14.61 2.203,13.268 2.581,12 Z m 17.206,0 c 0.12,1.095 0.187,2.197 0.207,3.298 0.027,1.533 -0.033,3.068 -0.195,4.593 -0.004,0.036 -0.008,0.073 -0.012,0.109 h -7.574 c -0.12,-1.095 -0.187,-2.197 -0.207,-3.298 -0.027,-1.533 0.033,-3.068 0.195,-4.593 L 12.213,12 Z M 18.502,2.223 C 22.996,3.036 26.746,5.995 28.651,10 H 21.532 C 21.333,8.787 21.065,7.583 20.694,6.412 20.572,6.028 20.439,5.648 20.292,5.273 20.17,4.962 20.037,4.654 19.893,4.352 19.791,4.138 19.683,3.927 19.568,3.72 19.476,3.556 19.38,3.393 19.278,3.234 19.2,3.112 19.118,2.991 19.034,2.873 18.872,2.648 18.695,2.428 18.502,2.223 Z m -5.004,0 C 13.305,2.428 13.128,2.648 12.966,2.873 12.882,2.991 12.8,3.112 12.722,3.234 12.62,3.393 12.524,3.556 12.432,3.72 12.317,3.927 12.209,4.138 12.107,4.352 11.963,4.654 11.83,4.962 11.708,5.273 11.561,5.648 11.428,6.028 11.306,6.412 10.935,7.583 10.667,8.787 10.468,10 H 3.349 C 5.254,5.995 9.004,3.036 13.498,2.223 Z M 19.504,10 C 19.364,9.202 19.189,8.409 18.97,7.629 18.767,6.904 18.525,6.187 18.219,5.498 17.994,4.99 17.734,4.492 17.409,4.04 17.208,3.76 16.98,3.491 16.704,3.282 16.53,3.15 16.334,3.043 16.116,3.008 16.068,3.002 16.02,3 15.971,3.001 15.606,3.02 15.292,3.256 15.042,3.504 14.996,3.549 14.952,3.595 14.909,3.643 14.846,3.712 14.786,3.784 14.728,3.857 14.664,3.938 14.604,4.02 14.545,4.104 14.159,4.659 13.863,5.275 13.611,5.9 13.284,6.714 13.032,7.557 12.826,8.409 12.699,8.936 12.59,9.467 12.496,10 Z"
       id="path4"
        /></g></g>

</svg>