<?xml version="1.0" encoding="UTF-8" standalone="no"?>
<svg
   xmlns:dc="http://purl.org/dc/elements/1.1/"
   xmlns:cc="http://creativecommons.org/ns#"
   xmlns:rdf="http://www.w3.org/1999/02/22-rdf-syntax-ns#"
   xmlns:svg="http://www.w3.org/2000/svg"
   xmlns="http://www.w3.org/2000/svg"
   xmlns:sodipodi="http://sodipodi.sourceforge.net/DTD/sodipodi-0.dtd"
   xmlns:inkscape="http://www.inkscape.org/namespaces/inkscape"
   viewBox="0 0 32 32"
   version="1.1"
   xml:space="preserve"
   style="clip-rule:evenodd;fill-rule:evenodd;stroke-linejoin:round;stroke-miterlimit:1.41420996"
   x="0px"
   y="0px"
   stroke-miterlimit="1.41421"
   id="svg16"
   sodipodi:docname="web.svg"
   width="32"
   height="32"
   inkscape:export-filename="C:\Users\clt596\Documents\Personal Website\cbteeple.github.io\img\icons\web.png"
   inkscape:export-xdpi="768"
   inkscape:export-ydpi="768"
   inkscape:version="0.92.3 (2405546, 2018-03-11)"><metadata
     id="metadata22"><rdf:RDF><cc:Work
         rdf:about=""><dc:format>image/svg+xml</dc:format><dc:type
           rdf:resource="http://purl.org/dc/dcmitype/StillImage" /><dc:title></dc:title></cc:Work></rdf:RDF></metadata><defs
     id="defs20" /><sodipodi:namedview
     pagecolor="#ffffff"
     bordercolor="#666666"
     borderopacity="1"
     objecttolerance="10"
     gridtolerance="10"
     guidetolerance="10"
     inkscape:pageopacity="0"
     inkscape:pageshadow="2"
     inkscape:window-width="2560"
     inkscape:window-height="1330"
     id="namedview18"
     showgrid="false"
     inkscape:zoom="11.8"
     inkscape:cx="22.216652"
     inkscape:cy="8.1044464"
     inkscape:window-x="-12"
     inkscape:window-y="-12"
     inkscape:window-maximized="1"
     inkscape:current-layer="g8" /><g
     transform="translate(-192,-128)"
     id="g10"><g
       transform="translate(192,128)"
       id="g8"><rect
         x="0"
         y="0"
         width="32"
         height="32"
         style="fill:none"
         id="rect2" /><g
         transform="translate(-541,-228)"
         id="g6"
         style="fill:#bfe7ff;fill-opacity:1"><path
           d="m 569.651,250 c -1.905,4.004 -5.655,6.964 -10.148,7.776 0.217,-0.23 0.414,-0.48 0.593,-0.737 0.105,-0.151 0.205,-0.306 0.3,-0.463 0.12,-0.198 0.232,-0.4 0.337,-0.606 0.131,-0.253 0.251,-0.51 0.364,-0.771 0.155,-0.359 0.296,-0.723 0.424,-1.092 0.154,-0.44 0.29,-0.885 0.413,-1.335 0.25,-0.912 0.446,-1.838 0.599,-2.772 z m -25.302,0 h 7.118 c 0.153,0.934 0.349,1.86 0.599,2.772 0.123,0.45 0.259,0.895 0.413,1.335 0.128,0.369 0.269,0.733 0.424,1.092 0.113,0.261 0.233,0.518 0.364,0.771 0.105,0.206 0.217,0.408 0.337,0.606 0.095,0.157 0.195,0.312 0.3,0.463 0.179,0.257 0.376,0.507 0.593,0.737 -4.493,-0.812 -8.243,-3.772 -10.148,-7.776 z m 16.155,0 c -0.086,0.488 -0.185,0.974 -0.298,1.456 -0.22,0.934 -0.493,1.859 -0.859,2.747 -0.253,0.614 -0.55,1.217 -0.938,1.757 -0.072,0.101 -0.148,0.199 -0.228,0.294 -0.057,0.068 -0.117,0.134 -0.179,0.198 -0.042,0.043 -0.085,0.085 -0.13,0.126 -0.252,0.229 -0.575,0.445 -0.93,0.42 -0.19,-0.014 -0.369,-0.094 -0.527,-0.197 -0.288,-0.186 -0.526,-0.446 -0.733,-0.717 -0.347,-0.455 -0.621,-0.965 -0.858,-1.485 -0.326,-0.719 -0.581,-1.469 -0.794,-2.228 -0.219,-0.78 -0.394,-1.572 -0.534,-2.371 z m 9.915,-10 c 0.378,1.268 0.581,2.61 0.581,4 0,1.39 -0.203,2.732 -0.581,4 h -7.621 c 0.163,-1.573 0.224,-3.157 0.195,-4.738 -0.019,-1.089 -0.082,-2.178 -0.195,-3.262 z m -26.838,0 h 7.621 c -0.113,1.084 -0.176,2.173 -0.195,3.262 -0.029,1.581 0.032,3.165 0.195,4.738 h -7.621 c -0.378,-1.268 -0.581,-2.61 -0.581,-4 0,-1.39 0.203,-2.732 0.581,-4 z m 17.206,0 c 0.12,1.095 0.187,2.197 0.207,3.298 0.027,1.533 -0.033,3.068 -0.195,4.593 -0.004,0.036 -0.008,0.073 -0.012,0.109 h -7.574 c -0.12,-1.095 -0.187,-2.197 -0.207,-3.298 -0.027,-1.533 0.033,-3.068 0.195,-4.593 L 553.213,240 Z m -1.285,-9.777 c 4.494,0.813 8.244,3.772 10.149,7.777 h -7.119 c -0.199,-1.213 -0.467,-2.417 -0.838,-3.588 -0.122,-0.384 -0.255,-0.764 -0.402,-1.139 -0.122,-0.311 -0.255,-0.619 -0.399,-0.921 -0.102,-0.214 -0.21,-0.425 -0.325,-0.632 -0.092,-0.164 -0.188,-0.327 -0.29,-0.486 -0.078,-0.122 -0.16,-0.243 -0.244,-0.361 -0.162,-0.225 -0.339,-0.445 -0.532,-0.65 z m -5.004,0 c -0.193,0.205 -0.37,0.425 -0.532,0.65 -0.084,0.118 -0.166,0.239 -0.244,0.361 -0.102,0.159 -0.198,0.322 -0.29,0.486 -0.115,0.207 -0.223,0.418 -0.325,0.632 -0.144,0.302 -0.277,0.61 -0.399,0.921 -0.147,0.375 -0.28,0.755 -0.402,1.139 -0.371,1.171 -0.639,2.375 -0.838,3.588 h -7.119 c 1.905,-4.005 5.655,-6.964 10.149,-7.777 z m 6.006,7.777 c -0.14,-0.798 -0.315,-1.591 -0.534,-2.371 -0.203,-0.725 -0.445,-1.442 -0.751,-2.131 -0.225,-0.508 -0.485,-1.006 -0.81,-1.458 -0.201,-0.28 -0.429,-0.549 -0.705,-0.758 -0.174,-0.132 -0.37,-0.239 -0.588,-0.274 -0.048,-0.006 -0.096,-0.008 -0.145,-0.007 -0.365,0.019 -0.679,0.255 -0.929,0.503 -0.046,0.045 -0.09,0.091 -0.133,0.139 -0.063,0.069 -0.123,0.141 -0.181,0.214 -0.064,0.081 -0.124,0.163 -0.183,0.247 -0.386,0.555 -0.682,1.171 -0.934,1.796 -0.327,0.814 -0.579,1.657 -0.785,2.509 -0.127,0.527 -0.236,1.058 -0.33,1.591 z"
           id="path4"
           inkscape:connector-curvature="0"
           style="fill:#bfe7ff;fill-opacity:1" /></g></g></g><text
     x="0"
     y="39"
     font-size="5px"
     font-weight="bold"
     id="text12"
     style="font-weight:bold;font-size:5px;font-family:'Helvetica Neue', Helvetica, Arial-Unicode, Arial, Sans-serif;fill:#000000">Created by Explanaicon</text>
<text
     x="0"
     y="44"
     font-size="5px"
     font-weight="bold"
     id="text14"
     style="font-weight:bold;font-size:5px;font-family:'Helvetica Neue', Helvetica, Arial-Unicode, Arial, Sans-serif;fill:#000000">from the Noun Project</text>
</svg>