<?xml version="1.0" encoding="UTF-8" standalone="no"?>
<svg
   xmlns:dc="http://purl.org/dc/elements/1.1/"
   xmlns:cc="http://creativecommons.org/ns#"
   xmlns:rdf="http://www.w3.org/1999/02/22-rdf-syntax-ns#"
   xmlns:svg="http://www.w3.org/2000/svg"
   xmlns="http://www.w3.org/2000/svg"
   xmlns:sodipodi="http://sodipodi.sourceforge.net/DTD/sodipodi-0.dtd"
   xmlns:inkscape="http://www.inkscape.org/namespaces/inkscape"
   xml:space="preserve"
   version="1.1"
   style="clip-rule:evenodd;fill-rule:evenodd;image-rendering:optimizeQuality;shape-rendering:geometricPrecision;text-rendering:geometricPrecision"
   viewBox="0 0 300 300"
   x="0px"
   y="0px"
   id="svg28"
   sodipodi:docname="teaching.svg"
   width="300"
   height="300"
   inkscape:export-filename="C:\Users\clt596\Documents\Personal Website\cbteeple.github.io\img\icons\teaching.png"
   inkscape:export-xdpi="81.919998"
   inkscape:export-ydpi="81.919998"
   inkscape:version="0.92.3 (2405546, 2018-03-11)"><metadata
     id="metadata32"><rdf:RDF><cc:Work
         rdf:about=""><dc:format>image/svg+xml</dc:format><dc:type
           rdf:resource="http://purl.org/dc/dcmitype/StillImage" /><dc:title></dc:title></cc:Work></rdf:RDF></metadata><sodipodi:namedview
     pagecolor="#ffffff"
     bordercolor="#666666"
     borderopacity="1"
     objecttolerance="10"
     gridtolerance="10"
     guidetolerance="10"
     inkscape:pageopacity="0"
     inkscape:pageshadow="2"
     inkscape:window-width="2560"
     inkscape:window-height="1330"
     id="namedview30"
     showgrid="false"
     fit-margin-top="0"
     fit-margin-left="0"
     fit-margin-right="0"
     fit-margin-bottom="0"
     inkscape:zoom="0.61298701"
     inkscape:cx="141.5"
     inkscape:cy="131.55225"
     inkscape:window-x="-12"
     inkscape:window-y="-12"
     inkscape:window-maximized="1"
     inkscape:current-layer="svg28" /><defs
     id="defs4"><style
       type="text/css"
       id="style2">
   
    .fil0 {fill:black}
    .fil1 {fill:black}
    .fil2 {fill:black;fill-rule:nonzero}
   
  </style></defs><g
     id="g22"
     transform="matrix(0.86867027,0,0,0.86867027,27.083157,16.224778)"
     style="fill:#bfe7ff;fill-opacity:1"><path
       class="fil0"
       d="M 0,0 H 208 V 192 H 0 Z M 15,15 V 177 H 193 V 15 Z"
       id="path6"
       inkscape:connector-curvature="0"
       style="fill:#bfe7ff;fill-opacity:1" /><path
       class="fil1"
       d="m 253,56 v 0 c 17,0 30,14 30,30 0,46 0,93 0,139 0,18 -27,18 -27,0 v -56 c 0,-4 -6,-4 -6,0 v 56 c 0,18 -27,18 -27,0 0,-46 0,-93 0,-139 0,-1 0,-2 0,-3 h -58 c -18,0 -18,-27 0,-27 29,0 59,0 88,0 z"
       id="path8"
       inkscape:connector-curvature="0"
       style="fill:#bfe7ff;fill-opacity:1" /><path
       class="fil1"
       d="m 276,28 c 0,29 -45,29 -45,0 0,-30 45,-30 45,0 z"
       id="path10"
       inkscape:connector-curvature="0"
       style="fill:#bfe7ff;fill-opacity:1" /><path
       class="fil1"
       d="m 63,228 c 0,29 -45,29 -45,0 0,-30 45,-30 45,0 z"
       id="path12"
       inkscape:connector-curvature="0"
       style="fill:#bfe7ff;fill-opacity:1" /><path
       class="fil1"
       d="m 145,228 c 0,29 -44,29 -44,0 0,-30 44,-30 44,0 z"
       id="path14"
       inkscape:connector-curvature="0"
       style="fill:#bfe7ff;fill-opacity:1" /><path
       class="fil1"
       d="m 75,290 v 18 H 6 v -18 c 0,-46 69,-46 69,0 z"
       id="path16"
       inkscape:connector-curvature="0"
       style="fill:#bfe7ff;fill-opacity:1" /><path
       class="fil1"
       d="m 158,290 v 18 H 88 v -18 c 0,-46 70,-46 70,0 z"
       id="path18"
       inkscape:connector-curvature="0"
       style="fill:#bfe7ff;fill-opacity:1" /><polygon
       class="fil2"
       points="26,73 36,73 36,145 89,105 122,116 145,96 140,90 161,87 155,108 151,103 124,127 91,116 44,151 144,151 146,151 146,160 31,160 26,160 26,156 "
       id="polygon20"
       style="fill:#bfe7ff;fill-rule:nonzero;fill-opacity:1" /></g></svg>