<?xml version="1.0" encoding="UTF-8" standalone="no"?>
<svg id="svg28" version="1.1" viewBox="0 0 32 32" width="300" height="300" >
<defs>
  <g
     id="g22"
     transform="matrix(0.86867027,0,0,0.86867027,27.083157,16.224778)">
     <path
   d="m 26,73 h 10 v 72 l 53,-40 33,11 23,-20 -5,-6 21,-3 -6,21 -4,-5 -27,24 -33,-11 -47,35 h 100 2 v 9 H 31 26 v -4 z m 132,217 v 18 H 88 v -18 c 0,-46 70,-46 70,0 z m -83,0 v 18 H 6 v -18 c 0,-46 69,-46 69,0 z m 70,-62 c 0,29 -44,29 -44,0 0,-30 44,-30 44,0 z m -82,0 c 0,29 -45,29 -45,0 0,-30 45,-30 45,0 z M 276,28 c 0,29 -45,29 -45,0 0,-30 45,-30 45,0 z m -23,28 v 0 c 17,0 30,14 30,30 0,46 0,93 0,139 0,18 -27,18 -27,0 v -56 c 0,-4 -6,-4 -6,0 v 56 c 0,18 -27,18 -27,0 0,-46 0,-93 0,-139 0,-1 0,-2 0,-3 h -58 c -18,0 -18,-27 0,-27 29,0 59,0 88,0 z M 0,0 H 208 V 192 H 0 Z M 15,15 V 177 H 193 V 15 Z"
   id="polygon20" />
 </g>
   </defs>
   </svg>